<?xml version="1.0" encoding="utf-8"?>
<!-- Generator: Adobe Illustrator 16.0.0, SVG Export Plug-In . SVG Version: 6.00 Build 0)  -->
<!DOCTYPE svg PUBLIC "-//W3C//DTD SVG 1.1//EN" "http://www.w3.org/Graphics/SVG/1.1/DTD/svg11.dtd">
<svg version="1.1" id="Layer_1" xmlns="http://www.w3.org/2000/svg" xmlns:xlink="http://www.w3.org/1999/xlink" x="0px" y="0px"
	 width="420px" height="245px" viewBox="0 0 420 245" enable-background="new 0 0 420 245" xml:space="preserve">
<g id="Layer_2">
</g>
<g>
	<path fill="#F2E9E9" d="M14.5,99.587c12.394-10.832,109.587-49.09,144.587-22.09c26.967,20.803,25.651,52.175,49.308,44.434
		c24.23-7.929-77.693,77.273-79.121,43.247C129.047,159.803-2.956,114.843,14.5,99.587z"/>
	<path fill="#C5B5D9" d="M44.5,105.587c12.394-10.832,77.586-45.683,112.586-18.683c26.965,20.801,23.917,42.767,48.803,42.77
		c5.809-6.064,7.415-9.677,1.506-7.743c-23.656,7.741-22.341-23.631-49.308-44.434c-35-27-132.193,11.258-144.587,22.09
		c-17.456,15.256,114.547,60.216,114.773,65.591c0.468,11.147,11.722,9.497,25.793,2.518
		C129.771,155.532,29.119,119.03,44.5,105.587z"/>
	<path fill="#F2E9E9" d="M18.5,79.587c12.135-11.121,109.587-49.09,144.587-22.09C190.054,78.3,190,106.75,212.395,101.931
		c24.924-5.363-77.693,77.273-79.121,43.247C133.047,139.803,2.5,94.25,18.5,79.587z"/>
	<g>
		<g>
			<polygon fill="#FCE098" points="381.123,41.139 263.32,72.585 248.469,58 			"/>
			<line fill="#FCE098" x1="271.841" y1="61.203" x2="360.953" y2="44.544"/>
			<line fill="#F4D0A6" stroke="#F4D0A6" stroke-miterlimit="10" x1="271.407" y1="61.279" x2="353.6" y2="46.858"/>
		</g>
		<path fill="#F2E9E9" d="M262.5,32C250.073,32,240,42.074,240,54.5c0,9.105,5.412,16.942,13.192,20.483l-21.824,13.712
			c-0.004-0.006-0.007-0.012-0.011-0.017L75.213,174.563L14.5,206.5l60.79-14.173c1.986-0.555,4.006-1.027,6.005-1.4l2.652-0.618
			l0.577,0.104c2.563-0.333,5.041-0.471,7.31-0.357c7.133,0.355,16.578,2.714,26.558,6.289c3.7,0.925,7.595,2.031,11.527,3.25
			c6.987,3.043,13.795,5.492,19.81,7.023c2.61,0.986,6.581,1.866,11.09,2.355c4.871,0.528,9.232,0.478,11.984-0.026
			c0.701-0.03,1.445-0.109,2.216-0.249c0.457-0.083,0.893-0.187,1.315-0.299c0.83-0.14,1.859-0.375,3.146-0.724
			c11.009-2.984,36.279-31.632,45.298-46.067c12.004-15.611,17.843-33.489,15.555-50.244c0.016-8.251,0.115-15.918,2.633-19.273
			L270.83,75.4C279.132,72.089,285,63.982,285,54.5C285,42.074,274.927,32,262.5,32z"/>
		<path fill="none" stroke="#000000" stroke-width="2" stroke-linecap="round" stroke-miterlimit="10" d="M272.799,47.525
			c-2.792-4.01-6.559-5.794-10.33,0.001"/>
	</g>
	<path fill="#C5B5D9" d="M45.5,81.587c12.394-10.832,77.586-45.683,112.586-18.683c26.965,20.801,37.039,41.408,47.352,40.721
		c7.625-2,28.75-17.938,16.5-10.25c-21.083,13.23-35.104-19.542-62.851-39.878C123.434,27.366,27.365,65.319,14.5,75.587
		c-19,15.163,102.515,60.681,114.773,65.591c0,0,14.394,4.155,32.061,0.822C134.334,133,30.119,95.03,45.5,81.587z"/>
</g>
<g>
	<path fill="#FCE098" stroke="#FCE098" stroke-miterlimit="10" d="M94.28,225.713l0.126-0.117l-0.149,0.09
		C94.264,225.695,94.274,225.702,94.28,225.713z"/>
	<path fill="#FCE098" stroke="#FCE098" stroke-miterlimit="10" d="M133.938,201.938l-1.438-0.805l-40.6,23.386l-46.329,5.699
		l0.369-0.403c-0.239-0.098-1.163,0.262-1.667,0.582l-2.934-0.378l2.483,0.973l-0.007,0.018l-3.318,1.171l3.018-0.285l-1.111,3.386
		l1.499-2.378c0.016,0.011,0.029,0.031,0.047,0.035l0.022-0.145l0.51-0.81c0.143-0.035,0.266-0.119,0.354-0.243l46.904-5.312
		c0.503,0.262,1.613,0.514,1.858,0.377l0.437-0.242c0.254-0.142,0.876-0.906,0.967-1.325L133.938,201.938z M94.28,225.713
		c-0.006-0.011-0.017-0.018-0.023-0.027l0.149-0.09L94.28,225.713z"/>
</g>
<g>
	
		<path fill="#C8C5A8" stroke="#9D9967" stroke-width="3" stroke-linecap="round" stroke-linejoin="round" stroke-miterlimit="10" d="
		M376.5,96.091l-47.027,21.085c5.252,11.89,16.734,16.667,29.637,14.152c15.159-2.955,21.391-13.724,18.391-29.428L376.5,96.091z"/>
	
		<path fill="#C8C5A8" stroke="#9D9967" stroke-width="3" stroke-linecap="round" stroke-linejoin="round" stroke-miterlimit="10" d="
		M375.833,97.679l-19.326-47.136c1.291-1.012,2.722-2.618,3.133-3.324c0.71-1.223,2.009-5.121,0.787-5.832
		c-1.097-0.637-3.838,1.494-4.91,2.825c-0.663-1.314-2.371-3.023-3.579-2.587c-1.332,0.481-0.668,2.949-0.188,4.279
		c0.308,0.854,1.75,2.335,1.75,3.329v1.324l-17.687,38.901L375.833,97.679z"/>
	
		<polygon fill="#C8C5A8" stroke="#9D9967" stroke-width="3" stroke-linecap="round" stroke-linejoin="round" stroke-miterlimit="10" points="
		335.813,87.501 328.889,117.5 374.828,97.679 	"/>
</g>
<path fill="#F2E9E9" d="M236.803,233.946"/>
</svg>
