<?xml version="1.0" encoding="utf-8"?>
<!-- Generator: Adobe Illustrator 16.0.0, SVG Export Plug-In . SVG Version: 6.00 Build 0)  -->
<!DOCTYPE svg PUBLIC "-//W3C//DTD SVG 1.1//EN" "http://www.w3.org/Graphics/SVG/1.1/DTD/svg11.dtd">
<svg version="1.1" id="clouds" xmlns="http://www.w3.org/2000/svg" xmlns:xlink="http://www.w3.org/1999/xlink" viewBox="0 600 1450 149" enable-background="new 0 0 1481 749" xml:space="preserve" preserveAspectRatio="xMinYMin meet" class="svg-content">
<g>
	<path fill="#FFFFFF" d="M0,749L0,749h729.946c-11.123-42.703-45.318-80.129-96.946-84c-2.057-0.154-4.097-0.226-6.124-0.234
		c-18.399-25.984-44.563-43.068-86.156-43.068c-41.35,0-92.035,17.656-117.452,43.27C397.748,645.053,358.314,632,311.967,632
		c-21.792,0-42.435,2.843-60.887,7.916C236.13,618.348,209.67,604,179.5,604c-36.366,0-67.361,20.832-79.275,50.051
		C65.338,657.838,8.315,677.22,0,703.072l0,0V749z"/>
	<path fill="#FFFFFF" d="M862.441,703.578c-23.714,11.353-43.681,28.384-55.146,45.422H1461h5.001H1481v-89.04
		c-29.04-14.784-67.483-24.386-93.691-24.386c-24.846,0-65.637,7.477-98.729,19.877c-18.88-23.584-48.151-38.389-78.961-34.103
		c-25.288,3.518-48.457,13.27-66.114,28.143c-15.839-14.388-35.409-23.075-57.504-21.491c-18.453,1.322-33.75,4.379-46.398,8.81
		c-27.371-11.86-66.199-16.098-92.92-10.764c-35.844,7.154-67.422,42.833-79.878,75.53c-1.222,0.539-2.435,1.093-3.639,1.662
		L862.441,703.578z"/>
</g>
</svg>
